<?xml version="1.0" encoding="UTF-8" standalone="no"?>
<!-- Created with Inkscape (http://www.inkscape.org/) -->

<svg
   xmlns:dc="http://purl.org/dc/elements/1.1/"
   xmlns:cc="http://creativecommons.org/ns#"
   xmlns:rdf="http://www.w3.org/1999/02/22-rdf-syntax-ns#"
   xmlns:svg="http://www.w3.org/2000/svg"
   xmlns="http://www.w3.org/2000/svg"
   xmlns:sodipodi="http://sodipodi.sourceforge.net/DTD/sodipodi-0.dtd"
   xmlns:inkscape="http://www.inkscape.org/namespaces/inkscape"
   width="200"
   height="33.869999"
   id="svg3270"
   version="1.1"
   inkscape:version="0.48.5 r10040"
   sodipodi:docname="curve.svg">
  <defs
     id="defs3272" />
  <sodipodi:namedview
     id="base"
     pagecolor="#ffffff"
     bordercolor="#666666"
     borderopacity="1.0"
     inkscape:pageopacity="0.0"
     inkscape:pageshadow="2"
     inkscape:zoom="4.1780108"
     inkscape:cx="85.626854"
     inkscape:cy="11.265846"
     inkscape:document-units="px"
     inkscape:current-layer="layer1"
     showgrid="false"
     fit-margin-top="0"
     fit-margin-left="0"
     fit-margin-right="0"
     fit-margin-bottom="0"
     inkscape:window-width="1366"
     inkscape:window-height="706"
     inkscape:window-x="-8"
     inkscape:window-y="-8"
     inkscape:window-maximized="1" />
  <metadata
     id="metadata3275">
    <rdf:RDF>
      <cc:Work
         rdf:about="">
        <dc:format>image/svg+xml</dc:format>
        <dc:type
           rdf:resource="http://purl.org/dc/dcmitype/StillImage" />
        <dc:title></dc:title>
      </cc:Work>
    </rdf:RDF>
  </metadata>
  <g
     id="layer1"
     inkscape:label="Layer 1"
     inkscape:groupmode="layer"
     transform="translate(-70.520626,-65.325207)">
    <path
       sodipodi:nodetypes="cccccccccccccc"
       inkscape:connector-curvature="0"
       id="path3268"
       d="m 240.52063,82.323021 c -18,-1 -24,-4 -33,-7 -11.57173,-3.1899 -22,-5 -37,-5 l 0,0 c -15,0 -25.42827,1.8101 -37,5 -9,3 -15,6 -33,7 l -30.000004,0 30.000004,0 c 18,1 24,4 33,7 11.57173,3.1899 22.71805,7.87218 37.71805,7.87218 15,0 24.71022,-4.68228 36.28195,-7.87218 9,-3 15,-6 33,-7 l 30,0 z"
       style="fill:#ffffff;stroke:none"
       inkscape:export-filename="D:\Sarah\training\m-clinic resouces\path.png"
       inkscape:export-xdpi="90.050377"
       inkscape:export-ydpi="90.050377" />
  </g>
</svg>
